<svg width="141" height="83" viewBox="0 0 141 83" fill="none" xmlns="http://www.w3.org/2000/svg">
<rect width="140.745" height="82.7911" fill="white"/>
<path d="M70.4836 45.7514C70.1955 45.7514 69.9492 45.6508 69.7425 45.4495C69.5357 45.2482 69.4324 45.0041 69.4324 44.7171V31.7041H70.4836C70.7783 31.7041 71.0268 31.8047 71.2357 32.006C71.4425 32.2073 71.5458 32.4514 71.5458 32.7384V45.7514H70.4836ZM77.7059 45.7514C77.4112 45.7514 77.1605 45.6508 76.9538 45.4495C76.747 45.2482 76.6437 45.0041 76.6437 44.7171V42.3766C76.6437 41.655 76.382 41.0361 75.8563 40.5243C75.3329 40.0104 74.6951 39.7535 73.9474 39.7535H72.8852C72.5971 39.7535 72.3508 39.6528 72.144 39.4515C71.9373 39.2502 71.8339 39.0061 71.8339 38.7192V37.6956H73.9276C74.6688 37.6956 75.3065 37.4365 75.841 36.9204C76.3754 36.4044 76.6415 35.7834 76.6415 35.0617V31.7062H77.7037C77.9984 31.7062 78.2469 31.8069 78.4558 32.0082C78.6626 32.2095 78.7659 32.4536 78.7659 32.7405V35.0617C78.7659 35.7513 78.6054 36.4194 78.2843 37.0661C77.9632 37.7127 77.5256 38.2652 76.9714 38.7192L77.3518 39.0704C77.7917 39.4922 78.1392 39.989 78.3877 40.5586C78.6384 41.1282 78.7637 41.7342 78.7637 42.3788V45.7535H77.7015L77.7059 45.7514Z" fill="#FF0003"/>
<path d="M81.8365 45.7516C81.5418 45.7516 81.2911 45.651 81.0844 45.4497C80.8777 45.2484 80.7743 45.0043 80.7743 44.7174V31.7043H81.8365C82.1312 31.7043 82.3797 31.805 82.5887 32.0063C82.7954 32.2076 82.8988 32.4517 82.8988 32.7386V37.9186C83.6531 37.4303 84.502 37.1862 85.4433 37.1862H88.7487V38.2098C88.7487 38.4967 88.6476 38.7408 88.443 38.9421C88.2385 39.1434 87.99 39.2441 87.6975 39.2441H85.4433C84.7417 39.2441 84.1413 39.486 83.6443 39.97C83.1473 40.4539 82.8988 41.0385 82.8988 41.7216V43.6917H89.4701V44.7152C89.4701 45.0022 89.3689 45.2463 89.1644 45.4476C88.9599 45.6489 88.7113 45.7495 88.4188 45.7495H81.8365V45.7516ZM83.1891 33.7622V32.7386C83.1891 32.4517 83.2902 32.2097 83.4947 32.0063C83.6993 31.805 83.9478 31.7043 84.2403 31.7043H89.4701V32.7386C89.4701 33.0191 89.3689 33.259 89.1644 33.4603C88.9599 33.6615 88.7113 33.7622 88.4188 33.7622H83.1891Z" fill="#FF0003"/>
<path d="M97.6426 45.7512C97.2951 45.7512 96.9894 45.6591 96.7255 45.4728C96.4616 45.2865 96.2702 45.0381 96.1493 44.7276L91.4715 31.7061H92.5843C92.9318 31.7061 93.2375 31.7981 93.5014 31.9844C93.7653 32.1707 93.9566 32.4191 94.0776 32.7296L97.6448 42.6398L101.201 32.7296C101.322 32.417 101.515 32.1686 101.782 31.9844C102.048 31.7981 102.353 31.7061 102.694 31.7061H103.807L98.7576 45.7534H97.6448L97.6426 45.7512Z" fill="#FF0003"/>
<path d="M71.4023 50.1414C71.4023 50.2228 71.3825 50.3105 71.3407 50.4069C71.2989 50.5011 71.2352 50.5954 71.145 50.6874C71.057 50.7795 70.9427 50.8523 70.8063 50.9101C70.6678 50.9679 70.5094 50.9958 70.3247 50.9958C70.1861 50.9958 70.0608 50.9829 69.9464 50.9572C69.8321 50.9315 69.7287 50.8909 69.6363 50.8373C69.544 50.7838 69.4582 50.711 69.3812 50.6232C69.3108 50.5418 69.2537 50.4519 69.2031 50.3534C69.1547 50.2527 69.1173 50.1478 69.0931 50.0343C69.0689 49.9208 69.0557 49.8009 69.0557 49.6746C69.0557 49.469 69.0865 49.2827 69.1481 49.12C69.2097 48.9572 69.2976 48.818 69.412 48.7024C69.5264 48.5868 69.6605 48.499 69.8167 48.4369C69.9706 48.3769 70.1356 48.3469 70.3093 48.3469C70.5226 48.3469 70.7118 48.3876 70.8789 48.4711C71.046 48.5546 71.1736 48.6553 71.2616 48.7773C71.3495 48.8994 71.3935 49.015 71.3935 49.1221C71.3935 49.1821 71.3715 49.2334 71.3297 49.2784C71.2858 49.3234 71.2352 49.3469 71.1736 49.3469C71.1054 49.3469 71.0548 49.332 71.0196 49.2998C70.9867 49.2677 70.9471 49.2142 70.9053 49.1371C70.8349 49.0107 70.7535 48.9144 70.6612 48.8523C70.5666 48.7902 70.4522 48.7581 70.3137 48.7581C70.0938 48.7581 69.92 48.8394 69.7903 49C69.6605 49.1628 69.5945 49.3919 69.5945 49.6896C69.5945 49.8887 69.6231 50.0536 69.6803 50.1863C69.7375 50.3191 69.8189 50.4176 69.9244 50.4819C70.03 50.5461 70.1531 50.5804 70.2939 50.5804C70.4478 50.5804 70.5754 50.544 70.6832 50.469C70.7887 50.3941 70.8679 50.287 70.9229 50.1435C70.9449 50.075 70.9735 50.0215 71.0065 49.9786C71.0394 49.9358 71.0944 49.9144 71.167 49.9144C71.2308 49.9144 71.2858 49.9358 71.3297 49.9786C71.3737 50.0215 71.3979 50.075 71.3979 50.1392L71.4023 50.1414Z" fill="#FF0003"/>
<path d="M74.8138 50.6615L74.6884 50.3403H73.6196L73.4942 50.668C73.4458 50.7965 73.404 50.8821 73.3689 50.9271C73.3337 50.972 73.2765 50.9935 73.1973 50.9935C73.1313 50.9935 73.072 50.9699 73.0192 50.9228C72.9686 50.8757 72.9422 50.82 72.9422 50.7601C72.9422 50.7258 72.9488 50.6894 72.9598 50.6508C72.9708 50.6144 72.9906 50.5609 73.0192 50.4945L73.6921 48.8307C73.7119 48.7836 73.7339 48.7258 73.7603 48.6594C73.7867 48.593 73.8153 48.5373 73.8461 48.4924C73.8769 48.4474 73.9165 48.4131 73.967 48.3853C74.0176 48.3575 74.077 48.3446 74.1518 48.3446C74.2266 48.3446 74.2881 48.3575 74.3365 48.3853C74.3871 48.4131 74.4267 48.4474 74.4575 48.4902C74.4883 48.533 74.5147 48.5802 74.5345 48.6294C74.5564 48.6787 74.5828 48.745 74.6136 48.8285L75.2998 50.4817C75.3548 50.608 75.3812 50.698 75.3812 50.7558C75.3812 50.8136 75.3548 50.8693 75.3042 50.9185C75.2536 50.9678 75.192 50.9935 75.1195 50.9935C75.0777 50.9935 75.0425 50.987 75.0117 50.972C74.9809 50.9571 74.9567 50.9378 74.9369 50.9121C74.9171 50.8864 74.8951 50.8478 74.8709 50.7965C74.8467 50.7451 74.8269 50.698 74.8116 50.6594L74.8138 50.6615ZM73.7581 49.9485H74.5432L74.1474 48.8906L73.7581 49.9485Z" fill="#FF0003"/>
<path d="M77.741 49.8544H77.5541V50.6767C77.5541 50.7859 77.5299 50.8651 77.4815 50.9165C77.4331 50.9679 77.3693 50.9936 77.2902 50.9936C77.2044 50.9936 77.1384 50.9658 77.0922 50.9122C77.046 50.8587 77.0219 50.7795 77.0219 50.6767V48.7066C77.0219 48.5953 77.0482 48.5139 77.0988 48.4647C77.1494 48.4154 77.233 48.3897 77.3473 48.3897H78.2138C78.3326 48.3897 78.436 48.394 78.5217 48.4047C78.6075 48.4154 78.6823 48.4347 78.7505 48.4647C78.834 48.4989 78.9066 48.546 78.9682 48.6103C79.032 48.6724 79.0803 48.7452 79.1133 48.8287C79.1463 48.9122 79.1617 49 79.1617 49.0942C79.1617 49.2848 79.1067 49.4368 78.9946 49.5525C78.8824 49.6681 78.7153 49.7473 78.4909 49.7944C78.5855 49.8437 78.6757 49.9165 78.7614 50.0107C78.8472 50.1049 78.9242 50.2077 78.9924 50.3148C79.0605 50.4219 79.1133 50.5204 79.1507 50.606C79.1881 50.6938 79.2079 50.7516 79.2079 50.7859C79.2079 50.8202 79.1969 50.8523 79.1749 50.8865C79.1529 50.9187 79.1221 50.9465 79.0847 50.9658C79.0473 50.985 79.0012 50.9936 78.9528 50.9936C78.8934 50.9936 78.8428 50.9808 78.801 50.9529C78.7592 50.9251 78.7263 50.8908 78.6955 50.848C78.6647 50.8052 78.6273 50.7452 78.5767 50.6638L78.3634 50.3169C78.2864 50.1906 78.2182 50.0942 78.1589 50.0278C78.0995 49.9615 78.0379 49.9165 77.9741 49.8908C77.9125 49.8672 77.8334 49.8544 77.7388 49.8544H77.741ZM78.0467 48.7794H77.5541V49.4839H78.0313C78.1589 49.4839 78.2666 49.4732 78.3546 49.4518C78.4426 49.4304 78.5085 49.394 78.5547 49.3426C78.6009 49.2912 78.6229 49.2184 78.6229 49.1285C78.6229 49.0578 78.6053 48.9957 78.5679 48.94C78.5305 48.8865 78.4799 48.8458 78.414 48.818C78.3524 48.7923 78.2292 48.7794 78.0467 48.7794Z" fill="#FF0003"/>
<path d="M83.7997 49.8541H83.6127V50.6764C83.6127 50.7856 83.5885 50.8648 83.5401 50.9162C83.4918 50.9676 83.428 50.9933 83.3488 50.9933C83.263 50.9933 83.1971 50.9655 83.1509 50.9119C83.1047 50.8584 83.0805 50.7792 83.0805 50.6764V48.7063C83.0805 48.595 83.1069 48.5136 83.1575 48.4644C83.2081 48.4151 83.2916 48.3894 83.406 48.3894H84.2725C84.3913 48.3894 84.4946 48.3937 84.5804 48.4044C84.6662 48.4151 84.7409 48.4344 84.8091 48.4644C84.8927 48.4986 84.9653 48.5457 85.0268 48.61C85.0906 48.6721 85.139 48.7449 85.172 48.8284C85.205 48.9119 85.2204 48.9997 85.2204 49.0939C85.2204 49.2845 85.1654 49.4365 85.0532 49.5522C84.9411 49.6678 84.7739 49.747 84.5496 49.7941C84.6442 49.8434 84.7343 49.9162 84.8201 50.0104C84.9059 50.1046 84.9828 50.2074 85.051 50.3145C85.1192 50.4216 85.172 50.5201 85.2094 50.6057C85.2468 50.6935 85.2665 50.7513 85.2665 50.7856C85.2665 50.8198 85.2556 50.852 85.2336 50.8862C85.2116 50.9183 85.1808 50.9462 85.1434 50.9655C85.106 50.9847 85.0598 50.9933 85.0114 50.9933C84.9521 50.9933 84.9015 50.9804 84.8597 50.9526C84.8179 50.9248 84.7849 50.8905 84.7541 50.8477C84.7233 50.8049 84.686 50.7449 84.6354 50.6635L84.422 50.3166C84.3451 50.1903 84.2769 50.0939 84.2175 50.0275C84.1581 49.9612 84.0966 49.9162 84.0328 49.8905C83.9712 49.8669 83.892 49.8541 83.7975 49.8541H83.7997ZM84.1054 48.7791H83.6127V49.4836H84.09C84.2175 49.4836 84.3253 49.4729 84.4132 49.4515C84.5012 49.4301 84.5672 49.3937 84.6134 49.3423C84.6596 49.2909 84.6815 49.2181 84.6815 49.1282C84.6815 49.0575 84.664 48.9954 84.6266 48.9397C84.5892 48.8862 84.5386 48.8455 84.4726 48.8177C84.411 48.792 84.2879 48.7791 84.1054 48.7791Z" fill="#FF0003"/>
<path d="M88.7093 48.7898H87.5085V49.4194H88.6148C88.6961 49.4194 88.7577 49.4365 88.7973 49.4729C88.8369 49.5093 88.8567 49.5543 88.8567 49.6142C88.8567 49.6742 88.8369 49.7192 88.7973 49.7556C88.7577 49.792 88.6961 49.8112 88.6148 49.8112H87.5085V50.5393H88.7511C88.8347 50.5393 88.8985 50.5586 88.9402 50.5971C88.982 50.6357 89.004 50.6849 89.004 50.7492C89.004 50.8134 88.982 50.8584 88.9402 50.8969C88.8985 50.9355 88.8347 50.9547 88.7511 50.9547H87.304C87.1874 50.9547 87.1039 50.929 87.0533 50.8798C87.0027 50.8305 86.9763 50.7492 86.9763 50.6378V48.7127C86.9763 48.6378 86.9873 48.5778 87.0093 48.5307C87.0313 48.4836 87.0687 48.4493 87.1171 48.4279C87.1655 48.4065 87.227 48.3958 87.3018 48.3958H88.7093C88.7951 48.3958 88.8567 48.4151 88.8985 48.4515C88.9402 48.4879 88.96 48.5371 88.96 48.595C88.96 48.6528 88.9402 48.7042 88.8985 48.7406C88.8567 48.777 88.7951 48.7962 88.7093 48.7962V48.7898Z" fill="#FF0003"/>
<path d="M91.3734 48.6573L92.3982 50.167V48.6423C92.3982 48.5438 92.4202 48.4689 92.4642 48.4196C92.5082 48.3704 92.5675 48.3447 92.6401 48.3447C92.7127 48.3447 92.7765 48.3704 92.8205 48.4196C92.8644 48.4689 92.8864 48.5438 92.8864 48.6423V50.6573C92.8864 50.8822 92.7897 50.9935 92.5983 50.9935C92.55 50.9935 92.5082 50.9871 92.4686 50.9743C92.429 50.9614 92.3938 50.94 92.3608 50.91C92.3278 50.88 92.297 50.8479 92.2685 50.8072C92.2399 50.7687 92.2113 50.728 92.1827 50.6873L91.1842 49.1948V50.6959C91.1842 50.7944 91.16 50.8672 91.1139 50.9186C91.0677 50.9678 91.0083 50.9935 90.9335 50.9935C90.8587 50.9935 90.7972 50.9678 90.7532 50.9164C90.707 50.865 90.685 50.7922 90.685 50.6959V48.7194C90.685 48.6359 90.6938 48.5695 90.7136 48.5224C90.7356 48.471 90.773 48.4282 90.8257 48.3939C90.8785 48.3618 90.9357 48.3447 90.9973 48.3447C91.0457 48.3447 91.0853 48.3532 91.1204 48.3682C91.1534 48.3832 91.1842 48.4046 91.2106 48.4303C91.237 48.456 91.2634 48.4881 91.2898 48.531C91.3162 48.5738 91.3448 48.6145 91.3734 48.6594V48.6573Z" fill="#FF0003"/>
<path d="M96.4295 48.8179H95.8489V50.6787C95.8489 50.7858 95.8247 50.865 95.7763 50.9164C95.7279 50.9678 95.6642 50.9935 95.585 50.9935C95.5058 50.9935 95.442 50.9678 95.3914 50.9142C95.3409 50.8607 95.3167 50.7815 95.3167 50.6766V48.8157H94.7361C94.6459 48.8157 94.5777 48.7964 94.5337 48.7579C94.4898 48.7194 94.4678 48.668 94.4678 48.6037C94.4678 48.5395 94.4898 48.4859 94.5359 48.4474C94.5821 48.4089 94.6481 48.3896 94.7361 48.3896H96.4295C96.5219 48.3896 96.59 48.4089 96.634 48.4495C96.678 48.4902 96.7022 48.5416 96.7022 48.6059C96.7022 48.6701 96.6802 48.7215 96.634 48.76C96.5878 48.7986 96.5197 48.8179 96.4295 48.8179Z" fill="#FF0003"/>
<path d="M99.7158 50.6615L99.5904 50.3403H98.5216L98.3962 50.6679C98.3479 50.7964 98.3061 50.8821 98.2709 50.927C98.2357 50.972 98.1785 50.9934 98.0994 50.9934C98.0334 50.9934 97.974 50.9698 97.9212 50.9227C97.8706 50.8756 97.8442 50.82 97.8442 50.76C97.8442 50.7257 97.8508 50.6893 97.8618 50.6508C97.8728 50.6144 97.8926 50.5608 97.9212 50.4945L98.5942 48.8306C98.614 48.7835 98.636 48.7257 98.6624 48.6593C98.6887 48.5929 98.7173 48.5373 98.7481 48.4923C98.7789 48.4473 98.8185 48.4131 98.8691 48.3852C98.9197 48.3574 98.979 48.3445 99.0538 48.3445C99.1286 48.3445 99.1902 48.3574 99.2386 48.3852C99.2891 48.4131 99.3287 48.4473 99.3595 48.4902C99.3903 48.533 99.4167 48.5801 99.4365 48.6293C99.4585 48.6786 99.4849 48.745 99.5157 48.8285L100.202 50.4816C100.257 50.608 100.283 50.6979 100.283 50.7557C100.283 50.8135 100.257 50.8692 100.206 50.9185C100.156 50.9677 100.094 50.9934 100.021 50.9934C99.9797 50.9934 99.9445 50.987 99.9137 50.972C99.8829 50.957 99.8587 50.9377 99.8389 50.912C99.8192 50.8863 99.7972 50.8478 99.773 50.7964C99.7488 50.745 99.729 50.6979 99.7136 50.6594L99.7158 50.6615ZM98.6624 49.9484H99.4475L99.0516 48.8906L98.6624 49.9484Z" fill="#FF0003"/>
<path d="M102.447 48.6592V50.5243H103.527C103.613 50.5243 103.679 50.5436 103.725 50.5864C103.771 50.6271 103.793 50.6785 103.793 50.7406C103.793 50.8027 103.771 50.8541 103.725 50.8926C103.679 50.9312 103.613 50.9504 103.525 50.9504H102.238C102.122 50.9504 102.038 50.9248 101.988 50.8755C101.937 50.8262 101.911 50.7449 101.911 50.6335V48.6613C101.911 48.5564 101.935 48.4772 101.983 48.4258C102.032 48.3744 102.095 48.3466 102.175 48.3466C102.254 48.3466 102.32 48.3723 102.37 48.4236C102.421 48.475 102.445 48.5543 102.445 48.6613L102.447 48.6592Z" fill="#FF0003"/>
<path d="M51.9451 37.355C48.279 39.2758 44.89 42.1752 40.5091 39.9696C38.1141 38.764 36.9221 36.4321 36.81 33.8946C36.7088 31.5948 36.9353 29.2521 36.8914 26.9459C36.887 26.7767 37.0035 26.6268 37.1707 26.584L42.6028 25.2049C42.8447 25.1428 43.0778 25.3249 43.0734 25.5668L42.8821 34.0766C42.8931 34.6376 43.4737 34.8175 43.9707 34.8432C44.1928 34.8539 47.3993 33.1301 47.9073 32.8646C50.5354 31.4834 53.1195 30.0102 55.7344 28.614C55.7718 28.5947 55.8136 28.5797 55.8554 28.5733L56.0731 28.539C56.1963 28.5198 56.3216 28.5605 56.4074 28.6504L60.1285 32.5327C60.1879 32.5948 60.2231 32.674 60.2275 32.7575C60.2385 32.8988 60.1637 33.0337 60.0361 33.1023C57.3597 34.5605 54.6414 35.9417 51.9429 37.355H51.9451Z" fill="#FF0003"/>
<path d="M51.945 45.7919C48.2788 43.8711 44.8898 40.9717 40.5089 43.1772C38.1139 44.3828 36.922 46.7148 36.8098 49.2523C36.7086 51.5521 36.9352 53.8947 36.8912 56.201C36.8868 56.3702 37.0033 56.52 37.1705 56.5629L42.6026 57.9419C42.8445 58.004 43.0776 57.822 43.0732 57.58L42.8819 49.0703C42.8929 48.5092 43.4735 48.3294 43.9705 48.3037C44.1926 48.293 47.3991 50.0167 47.9072 50.2823C50.5352 51.6635 53.1193 53.1367 55.7342 54.5329C55.7716 54.5521 55.8134 54.5671 55.8552 54.5736L56.0729 54.6078C56.1961 54.6271 56.3214 54.5864 56.4072 54.4965L60.1283 50.6142C60.1877 50.5521 60.2229 50.4729 60.2273 50.3893C60.2383 50.248 60.1635 50.1131 60.0359 50.0446C57.3595 48.5863 54.6412 47.2051 51.9428 45.7919H51.945Z" fill="#FF0003"/>
</svg>
