<svg width="55" height="58" viewBox="0 0 55 58" fill="none" xmlns="http://www.w3.org/2000/svg">
<g clip-path="url(#clip0_564_2132)">
<rect width="55" height="58" rx="9" fill="#1275B1"/>
<rect x="7.75" y="9.75" width="38.5" height="38.5" rx="19.25" fill="#1275B1"/>
<path d="M22.3505 20.3267C22.3505 21.6117 21.2367 22.6534 19.8628 22.6534C18.4888 22.6534 17.375 21.6117 17.375 20.3267C17.375 19.0417 18.4888 18 19.8628 18C21.2367 18 22.3505 19.0417 22.3505 20.3267Z" fill="white"/>
<path d="M17.7152 24.3636H21.9678V37.25H17.7152V24.3636Z" fill="white"/>
<path d="M28.8144 24.3636H24.5619V37.25H28.8144C28.8144 37.25 28.8144 33.1932 28.8144 30.6567C28.8144 29.1342 29.3343 27.6051 31.4085 27.6051C33.7526 27.6051 33.7385 29.5975 33.7276 31.141C33.7133 33.1586 33.7474 35.2175 33.7474 37.25H38V30.4489C37.964 26.1061 36.8324 24.1051 33.1095 24.1051C30.8987 24.1051 29.5282 25.1088 28.8144 26.0169V24.3636Z" fill="white"/>
</g>
<defs>
<clipPath id="clip0_564_2132">
<rect width="55" height="58" rx="9" fill="white"/>
</clipPath>
</defs>
</svg>
